# xmcd
#
# Track frame offsets:
#	150
#	29287
#	43180
#	56060
#	78515
#	99902
#	115980
#	142929
#	159871
#	186170
#	209869
#	226073
#	245039
#	266710
#
# Disc length: 3800 seconds
#
# Revision: 0
# Processed by: cddbd v1.5.2PL0 Copyright (c) Steve Scherf et al.
# Submitted via: EasyCDDAExtractor 15.2.1.1
#
DISCID=c20ed60e
DTITLE=Габделфэт Сафин - Хыянэт
DYEAR=2000
DGENRE=Ethnic
TTITLE0=Хыянэт
TTITLE1=Яннарымда син бар ич
TTITLE2=Кэтук тути
TTITLE3=Авылым юлы
TTITLE4=Энием баланнары
TTITLE5=Елмай, син
TTITLE6=Айдарга
TTITLE7=Гомер бер генэ килэ ул
TTITLE8=Хатын-кызларга
TTITLE9=Олы юлнын тузаны
TTITLE10=Талиям
TTITLE11=Ятим иттен, энкэй
TTITLE12=Габделфэт такмаклары
TTITLE13=Жырланмаган эле безнен жыр
EXTD=
EXTT0=
EXTT1=
EXTT2=
EXTT3=
EXTT4=
EXTT5=
EXTT6=
EXTT7=
EXTT8=
EXTT9=
EXTT10=
EXTT11=
EXTT12=
EXTT13=
PLAYORDER=
